<?xml version="1.0" encoding="UTF-8" standalone="no"?>
<svg
   xmlns:dc="http://purl.org/dc/elements/1.1/"
   xmlns:cc="http://creativecommons.org/ns#"
   xmlns:rdf="http://www.w3.org/1999/02/22-rdf-syntax-ns#"
   xmlns:svg="http://www.w3.org/2000/svg"
   xmlns="http://www.w3.org/2000/svg"
   xmlns:sodipodi="http://sodipodi.sourceforge.net/DTD/sodipodi-0.dtd"
   xmlns:inkscape="http://www.inkscape.org/namespaces/inkscape"
   version="1.1"
   x="0px"
   y="0px"
   viewBox="0 0 100 100"
   enable-background="new 0 0 100 100"
   xml:space="preserve"
   id="svg12"
   sodipodi:docname="noun_Input_116304.svg"
   width="100"
   height="100"
   inkscape:version="0.92.3 (2405546, 2018-03-11)"><metadata
     id="metadata18"><rdf:RDF><cc:Work
         rdf:about=""><dc:format>image/svg+xml</dc:format><dc:type
           rdf:resource="http://purl.org/dc/dcmitype/StillImage" /><dc:title></dc:title></cc:Work></rdf:RDF></metadata><defs
     id="defs16" /><sodipodi:namedview
     pagecolor="#ffffff"
     bordercolor="#666666"
     borderopacity="1"
     objecttolerance="10"
     gridtolerance="10"
     guidetolerance="10"
     inkscape:pageopacity="0"
     inkscape:pageshadow="2"
     inkscape:window-width="1920"
     inkscape:window-height="1013"
     id="namedview14"
     showgrid="false"
     inkscape:zoom="1.888"
     inkscape:cx="-103.60169"
     inkscape:cy="60.381356"
     inkscape:window-x="0"
     inkscape:window-y="0"
     inkscape:window-maximized="1"
     inkscape:current-layer="svg12" /><g
     id="g23"
     transform="translate(0,1)"><path
       inkscape:connector-curvature="0"
       id="path2"
       d="M 92.5,5 H 7.5 C 6.119,5 5,6.119 5,7.5 v 35 C 5,43.881 6.119,45 7.5,45 h 85 C 93.881,45 95,43.881 95,42.5 V 7.5 C 95,6.119 93.881,5 92.5,5 Z m -30,35 H 10 V 10 H 62.5 Z M 90,40 H 65 V 10 h 25 z" /><path
       inkscape:connector-curvature="0"
       id="path4"
       d="M 76.616,34.634 C 76.86,34.878 77.18,35 77.5,35 c 0.32,0 0.64,-0.122 0.884,-0.366 l 5,-5 c 0.357,-0.357 0.464,-0.895 0.271,-1.362 C 83.461,27.805 83.005,27.5 82.5,27.5 h -10 c -0.505,0 -0.961,0.305 -1.155,0.771 -0.193,0.467 -0.086,1.005 0.271,1.362 z" /><path
       inkscape:connector-curvature="0"
       id="path6"
       d="m 72.5,22.5 h 10 c 0.007,0 0.013,-0.001 0.02,0 0.69,0 1.25,-0.56 1.25,-1.25 0,-0.413 -0.2,-0.779 -0.509,-1.007 l -4.877,-4.877 c -0.488,-0.488 -1.279,-0.488 -1.768,0 l -5,5 c -0.357,0.357 -0.464,0.895 -0.271,1.362 0.194,0.467 0.65,0.772 1.155,0.772 z" /></g></svg>