<?xml version="1.0" encoding="UTF-8" standalone="no"?>
<svg
   xmlns:dc="http://purl.org/dc/elements/1.1/"
   xmlns:cc="http://creativecommons.org/ns#"
   xmlns:rdf="http://www.w3.org/1999/02/22-rdf-syntax-ns#"
   xmlns:svg="http://www.w3.org/2000/svg"
   xmlns="http://www.w3.org/2000/svg"
   xmlns:sodipodi="http://sodipodi.sourceforge.net/DTD/sodipodi-0.dtd"
   xmlns:inkscape="http://www.inkscape.org/namespaces/inkscape"
   version="1.1"
   x="0px"
   y="0px"
   viewBox="0 0 100 100"
   enable-background="new 0 0 100 100"
   xml:space="preserve"
   id="svg20"
   sodipodi:docname="noun_radio button_116305.svg"
   width="100"
   height="100"
   inkscape:version="0.92.3 (2405546, 2018-03-11)"><metadata
     id="metadata26"><rdf:RDF><cc:Work
         rdf:about=""><dc:format>image/svg+xml</dc:format><dc:type
           rdf:resource="http://purl.org/dc/dcmitype/StillImage" /><dc:title></dc:title></cc:Work></rdf:RDF></metadata><defs
     id="defs24" /><sodipodi:namedview
     pagecolor="#ffffff"
     bordercolor="#666666"
     borderopacity="1"
     objecttolerance="10"
     gridtolerance="10"
     guidetolerance="10"
     inkscape:pageopacity="0"
     inkscape:pageshadow="2"
     inkscape:window-width="1920"
     inkscape:window-height="1013"
     id="namedview22"
     showgrid="false"
     inkscape:zoom="1.888"
     inkscape:cx="51.059322"
     inkscape:cy="62.5"
     inkscape:window-x="0"
     inkscape:window-y="0"
     inkscape:window-maximized="1"
     inkscape:current-layer="svg20" /><g
     id="g35"
     transform="translate(0,25)"><path
       inkscape:connector-curvature="0"
       id="path2"
       d="M 20,7.5 C 26.893,7.5 32.5,1.893 32.5,-5 32.5,-11.893 26.893,-17.5 20,-17.5 13.107,-17.5 7.5,-11.893 7.5,-5 7.5,1.893 13.107,7.5 20,7.5 Z m 0,-20 c 4.136,0 7.5,3.364 7.5,7.5 0,4.136 -3.364,7.5 -7.5,7.5 -4.136,0 -7.5,-3.364 -7.5,-7.5 0,-4.136 3.364,-7.5 7.5,-7.5 z" /><path
       inkscape:connector-curvature="0"
       id="path4"
       d="m 20,0 c 2.757,0 5,-2.243 5,-5 0,-2.757 -2.243,-5 -5,-5 -2.757,0 -5,2.243 -5,5 0,2.757 2.243,5 5,5 z" /><path
       inkscape:connector-curvature="0"
       id="path6"
       d="M 20,37.5 C 26.893,37.5 32.5,31.893 32.5,25 32.5,18.107 26.893,12.5 20,12.5 13.107,12.5 7.5,18.107 7.5,25 c 0,6.893 5.607,12.5 12.5,12.5 z m 0,-20 c 4.136,0 7.5,3.364 7.5,7.5 0,4.136 -3.364,7.5 -7.5,7.5 -4.136,0 -7.5,-3.364 -7.5,-7.5 0,-4.136 3.364,-7.5 7.5,-7.5 z" /><path
       inkscape:connector-curvature="0"
       id="path8"
       d="M 20,67.5 C 26.893,67.5 32.5,61.893 32.5,55 32.5,48.107 26.893,42.5 20,42.5 13.107,42.5 7.5,48.107 7.5,55 c 0,6.893 5.607,12.5 12.5,12.5 z m 0,-20 c 4.136,0 7.5,3.364 7.5,7.5 0,4.136 -3.364,7.5 -7.5,7.5 -4.136,0 -7.5,-3.364 -7.5,-7.5 0,-4.136 3.364,-7.5 7.5,-7.5 z" /><path
       inkscape:connector-curvature="0"
       id="path10"
       d="M 92.5,-7.5 H 45 c -1.381,0 -2.5,1.119 -2.5,2.5 0,1.381 1.119,2.5 2.5,2.5 h 47.5 c 1.381,0 2.5,-1.119 2.5,-2.5 0,-1.381 -1.119,-2.5 -2.5,-2.5 z" /><path
       inkscape:connector-curvature="0"
       id="path12"
       d="M 92.5,22.5 H 45 c -1.381,0 -2.5,1.119 -2.5,2.5 0,1.381 1.119,2.5 2.5,2.5 h 47.5 c 1.381,0 2.5,-1.119 2.5,-2.5 0,-1.381 -1.119,-2.5 -2.5,-2.5 z" /><path
       inkscape:connector-curvature="0"
       id="path14"
       d="M 92.5,52.5 H 45 c -1.381,0 -2.5,1.119 -2.5,2.5 0,1.381 1.119,2.5 2.5,2.5 h 47.5 c 1.381,0 2.5,-1.119 2.5,-2.5 0,-1.381 -1.119,-2.5 -2.5,-2.5 z" /></g></svg>