<?xml version="1.0" encoding="UTF-8" standalone="no"?>
<svg
   xmlns:dc="http://purl.org/dc/elements/1.1/"
   xmlns:cc="http://creativecommons.org/ns#"
   xmlns:rdf="http://www.w3.org/1999/02/22-rdf-syntax-ns#"
   xmlns:svg="http://www.w3.org/2000/svg"
   xmlns="http://www.w3.org/2000/svg"
   xmlns:sodipodi="http://sodipodi.sourceforge.net/DTD/sodipodi-0.dtd"
   xmlns:inkscape="http://www.inkscape.org/namespaces/inkscape"
   version="1.1"
   x="0px"
   y="0px"
   viewBox="0 0 100 100"
   enable-background="new 0 0 100 100"
   xml:space="preserve"
   id="svg18"
   sodipodi:docname="noun_Checklist_116311.svg"
   width="100"
   height="100"
   inkscape:version="0.92.3 (2405546, 2018-03-11)"><metadata
     id="metadata24"><rdf:RDF><cc:Work
         rdf:about=""><dc:format>image/svg+xml</dc:format><dc:type
           rdf:resource="http://purl.org/dc/dcmitype/StillImage" /><dc:title></dc:title></cc:Work></rdf:RDF></metadata><defs
     id="defs22" /><sodipodi:namedview
     pagecolor="#ffffff"
     bordercolor="#666666"
     borderopacity="1"
     objecttolerance="10"
     gridtolerance="10"
     guidetolerance="10"
     inkscape:pageopacity="0"
     inkscape:pageshadow="2"
     inkscape:window-width="1920"
     inkscape:window-height="1013"
     id="namedview20"
     showgrid="false"
     inkscape:zoom="1.888"
     inkscape:cx="130.50847"
     inkscape:cy="62.5"
     inkscape:window-x="0"
     inkscape:window-y="0"
     inkscape:window-maximized="1"
     inkscape:current-layer="svg18" /><g
     id="g32"
     transform="translate(0,25)"><path
       inkscape:connector-curvature="0"
       id="path2"
       d="M 92.5,-7.5 H 45 c -1.381,0 -2.5,1.119 -2.5,2.5 0,1.381 1.119,2.5 2.5,2.5 h 47.5 c 1.381,0 2.5,-1.119 2.5,-2.5 0,-1.381 -1.119,-2.5 -2.5,-2.5 z" /><path
       inkscape:connector-curvature="0"
       id="path4"
       d="M 92.5,22.5 H 45 c -1.381,0 -2.5,1.119 -2.5,2.5 0,1.381 1.119,2.5 2.5,2.5 h 47.5 c 1.381,0 2.5,-1.119 2.5,-2.5 0,-1.381 -1.119,-2.5 -2.5,-2.5 z" /><path
       inkscape:connector-curvature="0"
       id="path6"
       d="M 92.5,52.5 H 45 c -1.381,0 -2.5,1.119 -2.5,2.5 0,1.381 1.119,2.5 2.5,2.5 h 47.5 c 1.381,0 2.5,-1.119 2.5,-2.5 0,-1.381 -1.119,-2.5 -2.5,-2.5 z" /><path
       inkscape:connector-curvature="0"
       id="path8"
       d="m 10,7.5 h 20 c 1.381,0 2.5,-1.119 2.5,-2.5 v -20 c 0,-1.381 -1.119,-2.5 -2.5,-2.5 H 10 c -1.381,0 -2.5,1.119 -2.5,2.5 V 5 c 0,1.381 1.119,2.5 2.5,2.5 z m 2.5,-20 h 15 v 3.232 l -6.25,6.25 -4.116,-4.116 c -0.488,-0.488 -1.279,-0.488 -1.768,0 -0.489,0.488 -0.488,1.279 0,1.768 l 5,5 C 20.61,-0.122 20.93,0 21.25,0 c 0.32,0 0.64,-0.122 0.884,-0.366 L 27.5,-5.732 V 2.5 h -15 z" /><path
       inkscape:connector-curvature="0"
       id="path10"
       d="m 10,37.5 h 20 c 1.381,0 2.5,-1.119 2.5,-2.5 V 15 c 0,-1.381 -1.119,-2.5 -2.5,-2.5 H 10 c -1.381,0 -2.5,1.119 -2.5,2.5 v 20 c 0,1.381 1.119,2.5 2.5,2.5 z m 2.5,-20 h 15 v 3.232 l -6.25,6.25 -4.116,-4.116 c -0.488,-0.488 -1.279,-0.488 -1.768,0 -0.489,0.488 -0.488,1.279 0,1.768 l 5,5 C 20.61,29.878 20.93,30 21.25,30 c 0.32,0 0.64,-0.122 0.884,-0.366 L 27.5,24.268 V 32.5 h -15 z" /><path
       inkscape:connector-curvature="0"
       id="path12"
       d="m 10,67.5 h 20 c 1.381,0 2.5,-1.119 2.5,-2.5 V 45 c 0,-1.381 -1.119,-2.5 -2.5,-2.5 H 10 c -1.381,0 -2.5,1.119 -2.5,2.5 v 20 c 0,1.381 1.119,2.5 2.5,2.5 z m 2.5,-20 h 15 v 15 h -15 z" /></g></svg>